<svg width="17" height="16" viewBox="0 0 17 16" fill="none" xmlns="http://www.w3.org/2000/svg">
<path d="M4.85254 3.33301C4.85254 2.22634 5.74587 1.33301 6.85254 1.33301H9.51921C10.6259 1.33301 11.5192 2.22634 11.5192 3.33301C11.5192 3.69967 11.2192 3.99967 10.8525 3.99967H5.51921C5.15254 3.99967 4.85254 3.69967 4.85254 3.33301Z" fill="#22367D"/>
<path d="M12.0192 10C12.0192 10.2733 11.7925 10.5 11.5192 10.5H10.8525V12.6667C10.8525 13.7733 9.95921 14.6667 8.85254 14.6667H7.51921C6.41254 14.6667 5.51921 13.7733 5.51921 12.6667V10.5H4.85254C4.57921 10.5 4.35254 10.2733 4.35254 10C4.35254 9.72667 4.57921 9.5 4.85254 9.5H11.5192C11.7925 9.5 12.0192 9.72667 12.0192 10Z" fill="#22367D"/>
<path d="M12.1855 4.66699H4.18555C2.85221 4.66699 2.18555 5.33366 2.18555 6.66699V10.0003C2.18555 11.3337 2.85221 12.0003 4.18555 12.0003H4.43555C4.66567 12.0003 4.85221 11.8138 4.85221 11.5837C4.85221 11.3535 4.65975 11.1739 4.44449 11.0926C4.003 10.9258 3.68555 10.4972 3.68555 10.0003C3.68555 9.36033 4.21221 8.83366 4.85221 8.83366H11.5189C12.1589 8.83366 12.6855 9.36033 12.6855 10.0003C12.6855 10.4972 12.3681 10.9258 11.9266 11.0926C11.7113 11.1739 11.5189 11.3535 11.5189 11.5837C11.5189 11.8138 11.7054 12.0003 11.9355 12.0003H12.1855C13.5189 12.0003 14.1855 11.3337 14.1855 10.0003V6.66699C14.1855 5.33366 13.5189 4.66699 12.1855 4.66699ZM6.85221 7.83366H4.85221C4.57888 7.83366 4.35221 7.60699 4.35221 7.33366C4.35221 7.06033 4.57888 6.83366 4.85221 6.83366H6.85221C7.12555 6.83366 7.35221 7.06033 7.35221 7.33366C7.35221 7.60699 7.12555 7.83366 6.85221 7.83366Z" fill="#22367D"/>
</svg>
