<svg width="20" height="18" viewBox="0 0 20 18" fill="none" xmlns="http://www.w3.org/2000/svg">
<path d="M14.65 0.859863H7.91V3.87986C7.91 4.26986 7.59 4.57986 7.21 4.57986C6.83 4.57986 6.51 4.26986 6.51 3.87986V0.859863H5.35C1.4 0.859863 0.0999956 2.03986 0.0099956 5.72986C-4.40422e-06 5.90986 0.0799956 6.09986 0.209996 6.22986C0.339996 6.36986 0.509996 6.43986 0.709996 6.43986C2.11 6.43986 3.26 7.59986 3.26 8.99986C3.26 10.3999 2.11 11.5599 0.709996 11.5599C0.519996 11.5599 0.339996 11.6299 0.209996 11.7699C0.0799956 11.8999 -4.40422e-06 12.0899 0.0099956 12.2699C0.0999956 15.9599 1.4 17.1399 5.35 17.1399H6.51V14.1199C6.51 13.7299 6.83 13.4199 7.21 13.4199C7.59 13.4199 7.91 13.7299 7.91 14.1199V17.1399H14.65C18.75 17.1399 20 15.8899 20 11.7899V6.20986C20 2.10986 18.75 0.859863 14.65 0.859863ZM16.47 8.89986L15.54 9.79986C15.5 9.82986 15.49 9.88986 15.5 9.93986L15.72 11.2099C15.76 11.4399 15.67 11.6799 15.47 11.8199C15.28 11.9599 15.03 11.9799 14.82 11.8699L13.67 11.2699C13.63 11.2499 13.57 11.2499 13.53 11.2699L12.38 11.8699C12.29 11.9199 12.19 11.9399 12.09 11.9399C11.96 11.9399 11.84 11.8999 11.73 11.8199C11.54 11.6799 11.44 11.4499 11.48 11.2099L11.7 9.93986C11.71 9.88986 11.69 9.83986 11.66 9.79986L10.73 8.89986C10.56 8.73986 10.5 8.48986 10.57 8.26986C10.64 8.03986 10.83 7.87986 11.07 7.84986L12.35 7.65986C12.4 7.64986 12.44 7.61986 12.47 7.57986L13.04 6.41986C13.15 6.20986 13.36 6.07986 13.6 6.07986C13.84 6.07986 14.05 6.20986 14.15 6.41986L14.72 7.57986C14.74 7.62986 14.78 7.65986 14.83 7.65986L16.11 7.84986C16.35 7.87986 16.54 8.04986 16.61 8.26986C16.7 8.48986 16.64 8.72986 16.47 8.89986Z" fill="#3D3EB4"/>
</svg>
