<svg width="177" height="24" viewBox="0 0 177 24" fill="none" xmlns="http://www.w3.org/2000/svg">
<path d="M8.87933 2.02919e-05L0.144534 0.0104597L0.00237096 0.138946V2.74187H0.117315L8.88019 2.73514C13.9775 2.72917 17.709 6.37402 17.7167 11.9847C17.7245 17.5954 14.0031 21.2462 8.90579 21.2559L0.169381 21.2626L0 21.4157V24L8.90968 23.9933C16.0107 23.9843 20.7499 18.706 20.7406 11.981C20.7313 5.25591 15.9811 -0.01193 8.87933 2.02919e-05Z" fill="#D7E749"/>
<path d="M12.4532 5.89062V7.75419H9.26486V18.9975H6.70396V7.75419H3.49512V5.89062H12.4532Z" fill="#D7E749"/>
<path d="M39.6529 0.141125L31.806 0.151587V2.81801H34.7179L39.6506 2.81129C44.6174 2.80456 48.2534 6.35678 48.2611 11.8233C48.2689 17.2898 44.6423 20.851 39.6754 20.8607L35.8149 20.866H31.8309V23.5369L39.6777 23.5272C46.5969 23.5182 51.215 18.3736 51.2064 11.8218C51.1979 5.27006 46.5721 0.132162 39.6529 0.141125Z" fill="white"/>
<path d="M68.8988 0.415536V2.87264H62.59V23.5588H59.5684V2.87264H53.2264V0.415536H68.8988Z" fill="white"/>
<path d="M75.9893 0.415536V23.5588H72.9677V0.415536H75.9893Z" fill="white"/>
<path d="M80.3596 11.9706C80.3596 9.7127 80.8687 7.68724 81.887 5.89422C82.9053 4.07906 84.2888 2.66235 86.0375 1.64409C87.8084 0.62583 89.7674 0.116699 91.9146 0.116699C94.4382 0.116699 96.6407 0.725443 98.5223 1.94293C100.404 3.16041 101.776 4.88703 102.64 7.12277H99.0203C98.3784 5.7282 97.4487 4.6546 96.2312 3.90197C95.0358 3.14934 93.597 2.77303 91.9146 2.77303C90.2987 2.77303 88.8488 3.14934 87.5649 3.90197C86.281 4.6546 85.2738 5.7282 84.5433 7.12277C83.8128 8.49521 83.4476 10.1111 83.4476 11.9706C83.4476 13.8079 83.8128 15.4238 84.5433 16.8184C85.2738 18.1908 86.281 19.2534 87.5649 20.006C88.8488 20.7586 90.2987 21.1349 91.9146 21.1349C93.597 21.1349 95.0358 20.7697 96.2312 20.0392C97.4487 19.2866 98.3784 18.213 99.0203 16.8184H102.64C101.776 19.032 100.404 20.7475 98.5223 21.965C96.6407 23.1604 94.4382 23.7581 91.9146 23.7581C89.7674 23.7581 87.8084 23.26 86.0375 22.2639C84.2888 21.2456 82.9053 19.84 81.887 18.0469C80.8687 16.2539 80.3596 14.2285 80.3596 11.9706Z" fill="white"/>
<path d="M119.689 23.5588L110.159 12.9999V23.5588H107.137V3.91071H110.159V11.1405L119.722 0.415536H123.54L113.048 12.0038L123.64 23.5588H119.689Z" fill="white"/>
<path d="M130.386 2.87264V10.6092H138.819V13.0995H130.386V21.0685H139.816V23.5588H127.364V0.382333H139.816V2.87264H130.386Z" fill="white"/>
<path d="M159.331 0.415536V2.87264H153.022V23.5588H150.001V2.87264H143.659V0.415536H159.331Z" fill="white"/>
<path d="M168.991 23.7913C167.463 23.7913 166.091 23.5256 164.873 22.9944C163.678 22.441 162.737 21.6883 162.051 20.7365C161.365 19.7625 161.011 18.6446 160.989 17.3829H164.209C164.32 18.4675 164.763 19.3862 165.537 20.1388C166.334 20.8693 167.485 21.2345 168.991 21.2345C170.43 21.2345 171.558 20.8804 172.378 20.172C173.219 19.4415 173.639 18.5118 173.639 17.3829C173.639 16.4974 173.396 15.778 172.909 15.2246C172.422 14.6712 171.813 14.2506 171.083 13.9628C170.352 13.6751 169.367 13.3652 168.127 13.0331C166.6 12.6347 165.371 12.2362 164.442 11.8378C163.534 11.4393 162.748 10.8195 162.084 9.97833C161.442 9.11502 161.121 7.96395 161.121 6.5251C161.121 5.26334 161.442 4.14547 162.084 3.17148C162.726 2.19749 163.623 1.44486 164.774 0.913598C165.947 0.382332 167.286 0.116699 168.791 0.116699C170.961 0.116699 172.732 0.659034 174.104 1.7437C175.499 2.82837 176.285 4.26722 176.462 6.06024H173.141C173.031 5.1748 172.566 4.40003 171.747 3.73595C170.928 3.04973 169.843 2.70662 168.493 2.70662C167.231 2.70662 166.202 3.03866 165.405 3.70275C164.608 4.34469 164.209 5.25227 164.209 6.42549C164.209 7.26666 164.442 7.95288 164.907 8.48414C165.394 9.01541 165.98 9.42493 166.666 9.7127C167.375 9.97833 168.36 10.2882 169.622 10.6424C171.149 11.063 172.378 11.4836 173.307 11.9042C174.237 12.3026 175.034 12.9335 175.698 13.7968C176.362 14.638 176.694 15.7891 176.694 17.25C176.694 18.379 176.395 19.4415 175.798 20.4376C175.2 21.4338 174.314 22.2417 173.141 22.8615C171.968 23.4813 170.585 23.7913 168.991 23.7913Z" fill="white"/>
</svg>
