<svg width="48" height="40" viewBox="0 0 48 40" fill="none" xmlns="http://www.w3.org/2000/svg">
<path d="M35.6667 0.166748H12.3333C5.33334 0.166748 0.666672 3.66675 0.666672 11.8334V28.1667C0.666672 36.3334 5.33334 39.8334 12.3333 39.8334H35.6667C42.6667 39.8334 47.3333 36.3334 47.3333 28.1667V11.8334C47.3333 3.66675 42.6667 0.166748 35.6667 0.166748ZM36.7633 14.3767L29.46 20.2101C27.92 21.4467 25.96 22.0534 24 22.0534C22.04 22.0534 20.0567 21.4467 18.54 20.2101L11.2367 14.3767C10.49 13.7701 10.3733 12.6501 10.9567 11.9034C11.5633 11.1567 12.66 11.0167 13.4067 11.6234L20.71 17.4567C22.4833 18.8801 25.4933 18.8801 27.2667 17.4567L34.57 11.6234C35.3167 11.0167 36.4367 11.1334 37.02 11.9034C37.6267 12.6501 37.51 13.7701 36.7633 14.3767Z" fill="#3D3EB4"/>
</svg>
