<svg width="17" height="16" viewBox="0 0 17 16" fill="none" xmlns="http://www.w3.org/2000/svg">
<path d="M14.1196 6.79301H12.193C10.613 6.79301 9.3263 5.50634 9.3263 3.92634V1.99967C9.3263 1.63301 9.0263 1.33301 8.65963 1.33301H5.83296C3.77963 1.33301 2.11963 2.66634 2.11963 5.04634V10.953C2.11963 13.333 3.77963 14.6663 5.83296 14.6663H11.073C13.1263 14.6663 14.7863 13.333 14.7863 10.953V7.45967C14.7863 7.09301 14.4863 6.79301 14.1196 6.79301ZM8.63963 10.5197L7.3063 11.853C7.25963 11.8997 7.19963 11.9397 7.13963 11.9597C7.07963 11.9863 7.01963 11.9997 6.95296 11.9997C6.8863 11.9997 6.8263 11.9863 6.7663 11.9597C6.71296 11.9397 6.65963 11.8997 6.61963 11.8597C6.61296 11.853 6.6063 11.853 6.6063 11.8463L5.27296 10.513C5.07963 10.3197 5.07963 9.99967 5.27296 9.80634C5.4663 9.61301 5.7863 9.61301 5.97963 9.80634L6.45296 10.293V7.49967C6.45296 7.22634 6.67963 6.99967 6.95296 6.99967C7.2263 6.99967 7.45296 7.22634 7.45296 7.49967V10.293L7.93296 9.81301C8.1263 9.61967 8.4463 9.61967 8.63963 9.81301C8.83296 10.0063 8.83296 10.3263 8.63963 10.5197Z" fill="#3D3EB4"/>
<path d="M12.0731 5.87365C12.7064 5.88032 13.5864 5.88032 14.3397 5.88032C14.7197 5.88032 14.9197 5.43365 14.6531 5.16699C13.6931 4.20032 11.9731 2.46032 10.9864 1.47365C10.7131 1.20032 10.2397 1.38699 10.2397 1.76699V4.09365C10.2397 5.06699 11.0664 5.87365 12.0731 5.87365Z" fill="#3D3EB4"/>
</svg>
