<svg width="36" height="44" viewBox="0 0 36 44" fill="none" xmlns="http://www.w3.org/2000/svg">
<path d="M27.1867 0.333252H8.81334C2.83334 0.333252 0.666672 2.49992 0.666672 8.58825V35.4116C0.666672 41.4999 2.83334 43.6666 8.81334 43.6666H27.165C33.1667 43.6666 35.3333 41.4999 35.3333 35.4116V8.58825C35.3333 2.49992 33.1667 0.333252 27.1867 0.333252ZM18 37.8166C15.92 37.8166 14.2083 36.1049 14.2083 34.0249C14.2083 31.9449 15.92 30.2332 18 30.2332C20.08 30.2332 21.7917 31.9449 21.7917 34.0249C21.7917 36.1049 20.08 37.8166 18 37.8166ZM22.3333 9.54158H13.6667C12.7783 9.54158 12.0417 8.80492 12.0417 7.91658C12.0417 7.02825 12.7783 6.29158 13.6667 6.29158H22.3333C23.2217 6.29158 23.9583 7.02825 23.9583 7.91658C23.9583 8.80492 23.2217 9.54158 22.3333 9.54158Z" fill="#3D3EB4"/>
</svg>
