<svg width="25" height="24" viewBox="0 0 25 24" fill="none" xmlns="http://www.w3.org/2000/svg">
<path d="M21.9944 7.57969H16.4144C16.0244 7.57969 15.7144 7.26969 15.7144 6.87969C15.7144 6.48969 16.0244 6.17969 16.4144 6.17969H21.9944C22.3844 6.17969 22.6944 6.48969 22.6944 6.87969C22.6944 7.26969 22.3844 7.57969 21.9944 7.57969Z" fill="#C3C8CE"/>
<path d="M7.11434 7.57969H3.39434C3.00434 7.57969 2.69434 7.26969 2.69434 6.87969C2.69434 6.48969 3.00434 6.17969 3.39434 6.17969H7.11434C7.50434 6.17969 7.81434 6.48969 7.81434 6.87969C7.81434 7.26969 7.49434 7.57969 7.11434 7.57969Z" fill="#C3C8CE"/>
<path d="M10.8343 10.8297C13.0158 10.8297 14.7843 9.06121 14.7843 6.87969C14.7843 4.69816 13.0158 2.92969 10.8343 2.92969C8.65275 2.92969 6.88428 4.69816 6.88428 6.87969C6.88428 9.06121 8.65275 10.8297 10.8343 10.8297Z" fill="#C3C8CE"/>
<path d="M21.9942 17.8102H18.2742C17.8842 17.8102 17.5742 17.5002 17.5742 17.1102C17.5742 16.7202 17.8842 16.4102 18.2742 16.4102H21.9942C22.3842 16.4102 22.6942 16.7202 22.6942 17.1102C22.6942 17.5002 22.3842 17.8102 21.9942 17.8102Z" fill="#C3C8CE"/>
<path d="M8.97434 17.8102H3.39434C3.00434 17.8102 2.69434 17.5002 2.69434 17.1102C2.69434 16.7202 3.00434 16.4102 3.39434 16.4102H8.97434C9.36434 16.4102 9.67434 16.7202 9.67434 17.1102C9.67434 17.5002 9.35434 17.8102 8.97434 17.8102Z" fill="#C3C8CE"/>
<path d="M14.5545 21.0699C16.736 21.0699 18.5045 19.3014 18.5045 17.1199C18.5045 14.9384 16.736 13.1699 14.5545 13.1699C12.373 13.1699 10.6045 14.9384 10.6045 17.1199C10.6045 19.3014 12.373 21.0699 14.5545 21.0699Z" fill="#C3C8CE"/>
</svg>
