<svg width="25" height="24" viewBox="0 0 25 24" fill="none" xmlns="http://www.w3.org/2000/svg">
<path d="M12.667 15C14.3238 15 15.667 13.6569 15.667 12C15.667 10.3431 14.3238 9 12.667 9C11.0101 9 9.66699 10.3431 9.66699 12C9.66699 13.6569 11.0101 15 12.667 15Z" stroke="#22367D" stroke-width="1.5" stroke-miterlimit="10" stroke-linecap="round" stroke-linejoin="round"/>
<path d="M2.66699 12.8804V11.1204C2.66699 10.0804 3.51699 9.22043 4.56699 9.22043C6.37699 9.22043 7.11699 7.94042 6.20699 6.37042C5.68699 5.47042 5.99699 4.30042 6.90699 3.78042L8.63699 2.79042C9.42699 2.32042 10.447 2.60042 10.917 3.39042L11.027 3.58042C11.927 5.15042 13.407 5.15042 14.317 3.58042L14.427 3.39042C14.897 2.60042 15.917 2.32042 16.707 2.79042L18.437 3.78042C19.347 4.30042 19.657 5.47042 19.137 6.37042C18.227 7.94042 18.967 9.22043 20.777 9.22043C21.817 9.22043 22.677 10.0704 22.677 11.1204V12.8804C22.677 13.9204 21.827 14.7804 20.777 14.7804C18.967 14.7804 18.227 16.0604 19.137 17.6304C19.657 18.5404 19.347 19.7004 18.437 20.2204L16.707 21.2104C15.917 21.6804 14.897 21.4004 14.427 20.6104L14.317 20.4204C13.417 18.8504 11.937 18.8504 11.027 20.4204L10.917 20.6104C10.447 21.4004 9.42699 21.6804 8.63699 21.2104L6.90699 20.2204C5.99699 19.7004 5.68699 18.5304 6.20699 17.6304C7.11699 16.0604 6.37699 14.7804 4.56699 14.7804C3.51699 14.7804 2.66699 13.9204 2.66699 12.8804Z" stroke="#22367D" stroke-width="1.5" stroke-miterlimit="10" stroke-linecap="round" stroke-linejoin="round"/>
</svg>
