<svg width="25" height="24" viewBox="0 0 25 24" fill="none" xmlns="http://www.w3.org/2000/svg">
<path d="M14.8263 3.19919L14.8266 3.19938L20.5865 7.22931C20.5865 7.22933 20.5866 7.22936 20.5866 7.22938C21.0558 7.55784 21.5001 8.09641 21.8275 8.72359C22.1549 9.3508 22.3432 10.024 22.3432 10.5997V17.3797C22.3432 19.6536 20.4971 21.4997 18.2232 21.4997H7.44324C5.17079 21.4997 3.32324 19.645 3.32324 17.3697V10.4697C3.32324 9.93526 3.49363 9.29618 3.79182 8.69056C4.08987 8.08521 4.49431 7.55657 4.92076 7.22394L4.92087 7.22386L9.92949 3.31493C9.92971 3.31476 9.92993 3.31459 9.93014 3.31442C11.267 2.27913 13.4361 2.2251 14.8263 3.19919ZM12.8332 19.2497C13.5194 19.2497 14.0832 18.6858 14.0832 17.9997V14.9997C14.0832 14.3136 13.5194 13.7497 12.8332 13.7497C12.1471 13.7497 11.5832 14.3136 11.5832 14.9997V17.9997C11.5832 18.6858 12.1471 19.2497 12.8332 19.2497Z" fill="#22367D" stroke="#22367D"/>
</svg>
